<svg width="20" height="20" viewBox="0 0 20 20" fill="none" xmlns="http://www.w3.org/2000/svg">
<path d="M3.25633 0.0929687L8.54398 5.38024C8.82632 5.66183 8.98503 6.04447 8.98503 6.44366V13.5994C8.98503 14.0002 8.82465 14.3845 8.5398 14.6678L3.29726 19.9086C3.1753 20.0312 2.97483 20.0296 2.8537 19.9086L0.0920953 17.1474C-0.0306984 17.0248 -0.0306984 16.8244 0.0920953 16.7019L5.75146 11.0436C6.33787 10.4571 6.33787 9.50476 5.75146 8.91672L0.0920953 3.25838C-0.0306984 3.13581 -0.0306984 2.93537 0.0920953 2.8128L2.81026 0.0929687C2.93306 -0.0296061 3.13353 -0.0296061 3.25633 0.0929687Z" fill="#FF585F"/>
<path d="M16.7436 19.9053L11.4551 14.618C11.1736 14.3365 11.0149 13.9539 11.0149 13.5547V6.40059C11.0149 5.99974 11.1753 5.61546 11.4601 5.33221L16.7018 0.091311C16.8246 -0.0312638 17.0251 -0.0296074 17.1462 0.091311L19.9078 2.85255C20.0306 2.97513 20.0306 3.17556 19.9078 3.29813L14.2485 8.95643C13.6621 9.54286 13.6621 10.4952 14.2485 11.0833L19.9078 16.7416C20.0306 16.8642 20.0306 17.0646 19.9078 17.1871L17.1888 19.9053C17.0669 20.0279 16.8664 20.0279 16.7436 19.9053Z" fill="#FF585F"/>
</svg>
