<svg width="16" height="16" viewBox="0 0 16 16" fill="none" xmlns="http://www.w3.org/2000/svg">
<path fill-rule="evenodd" clip-rule="evenodd" d="M9.47056 10.895C8.49084 11.5909 7.2932 12 6 12C2.68629 12 0 9.31371 0 6C0 2.68629 2.68629 0 6 0C9.31371 0 12 2.68629 12 6C12 7.2932 11.5909 8.49084 10.895 9.47056L15.705 14.2806C16.0983 14.6739 16.0983 15.3116 15.705 15.705C15.3116 16.0983 14.6739 16.0983 14.2806 15.705L9.47056 10.895ZM10 6C10 8.20914 8.20914 10 6 10C3.79086 10 2 8.20914 2 6C2 3.79086 3.79086 2 6 2C8.20914 2 10 3.79086 10 6Z" fill="black"/>
</svg>
